<?xml version="1.0" encoding="UTF-8" standalone="no"?><!DOCTYPE svg PUBLIC "-//W3C//DTD SVG 1.1//EN" "http://www.w3.org/Graphics/SVG/1.1/DTD/svg11.dtd"><svg width="100%" height="100%" viewBox="0 0 5520 4823" version="1.1" xmlns="http://www.w3.org/2000/svg" xmlns:xlink="http://www.w3.org/1999/xlink" xml:space="preserve" xmlns:serif="http://www.serif.com/" style="fill-rule:evenodd;clip-rule:evenodd;stroke-linejoin:round;stroke-miterlimit:2;"><g id="logo"><g id="Text"><g><path d="M3123.13,4015.85l-29.645,-36.233c-13.175,6.954 -27.175,12.353 -41.997,16.195c-14.823,3.843 -30.286,5.765 -46.389,5.765c-27.083,-0 -52.428,-5.033 -76.035,-15.097c-23.606,-10.065 -44.284,-24.156 -62.035,-42.272c-17.75,-18.117 -31.566,-39.161 -41.448,-63.133c-9.882,-23.972 -14.823,-49.866 -14.823,-77.681c0,-27.816 4.941,-53.709 14.823,-77.682c9.882,-23.972 23.698,-45.016 41.448,-63.133c17.751,-18.116 38.429,-32.207 62.035,-42.271c23.607,-10.065 48.952,-15.098 76.035,-15.098c27.083,0 52.428,5.033 76.034,15.098c23.606,10.064 44.285,24.155 62.035,42.271c17.751,18.117 31.567,39.161 41.448,63.133c9.882,23.973 14.823,49.866 14.823,77.682c-0,28.181 -5.215,54.624 -15.646,79.328c-10.431,24.704 -24.979,46.023 -43.644,63.956l42.82,52.154l-59.839,17.018Zm-118.031,-73.563c8.783,-0 17.293,-1.007 25.527,-3.02c8.235,-2.013 16.013,-5.032 23.332,-9.058l-48.31,-58.741l59.839,-17.019l34.586,41.723c9.882,-12.078 17.659,-25.985 23.332,-41.723c5.673,-15.737 8.509,-32.756 8.509,-51.055c-0,-19.764 -3.202,-38.063 -9.607,-54.899c-6.405,-16.835 -15.372,-31.566 -26.9,-44.193c-11.529,-12.627 -24.979,-22.417 -40.351,-29.371c-15.371,-6.953 -32.024,-10.43 -49.957,-10.43c-17.934,-0 -34.586,3.477 -49.958,10.43c-15.371,6.954 -28.821,16.744 -40.35,29.371c-11.529,12.627 -20.587,27.358 -27.175,44.193c-6.588,16.836 -9.881,35.135 -9.881,54.899c-0,19.763 3.293,38.062 9.881,54.898c6.588,16.835 15.646,31.567 27.175,44.193c11.529,12.627 24.979,22.417 40.35,29.371c15.372,6.954 32.024,10.431 49.958,10.431Z" style="fill-rule:nonzero;"/><path d="M3405.86,4001.58c-32.573,-0 -61.029,-6.954 -85.367,-20.862c-24.338,-13.907 -43.095,-33.671 -56.271,-59.29c-13.176,-25.619 -19.763,-55.813 -19.763,-90.582l-0,-219.594l65.878,0l-0,219.594c-0,22.691 3.934,42.272 11.803,58.741c7.869,16.47 18.94,29.279 33.213,38.429c14.274,9.15 31.109,13.725 50.507,13.725c19.397,-0 36.324,-4.575 50.781,-13.725c14.456,-9.15 25.528,-21.959 33.213,-38.429c7.686,-16.469 11.529,-36.05 11.529,-58.741l0,-219.594l65.878,0l0,219.594c0,34.769 -6.496,64.963 -19.489,90.582c-12.992,25.619 -31.566,45.383 -55.722,59.29c-24.155,13.908 -52.885,20.862 -86.19,20.862Z" style="fill-rule:nonzero;"/><path d="M3569.45,3995.54l150.971,-384.289l76.308,0l148.775,384.289l-70.819,-0l-39.527,-107.601l-157.558,0l-39.527,107.601l-68.623,-0Zm127.364,-159.205l120.228,-0l-60.389,-162.5l-59.839,162.5Z" style="fill-rule:nonzero;"/><path d="M3978.45,3995.54l-0,-384.289l64.231,0l200.379,279.433l-1.098,-279.433l62.035,0l0,384.289l-58.741,-0l-205.869,-287.119l1.098,287.119l-62.035,-0Z" style="fill-rule:nonzero;"/><path d="M4486.81,3995.54l-0,-327.194l-128.462,-0l-0,-57.095l322.802,0l0,57.095l-128.462,-0l-0,327.194l-65.878,-0Z" style="fill-rule:nonzero;"/><path d="M4900.19,4001.58c-32.573,-0 -61.029,-6.954 -85.367,-20.862c-24.339,-13.907 -43.096,-33.671 -56.271,-59.29c-13.176,-25.619 -19.764,-55.813 -19.764,-90.582l0,-219.594l65.878,0l0,219.594c0,22.691 3.935,42.272 11.804,58.741c7.868,16.47 18.94,29.279 33.213,38.429c14.274,9.15 31.109,13.725 50.507,13.725c19.397,-0 36.324,-4.575 50.781,-13.725c14.456,-9.15 25.527,-21.959 33.213,-38.429c7.686,-16.469 11.529,-36.05 11.529,-58.741l-0,-219.594l65.878,0l-0,219.594c-0,34.769 -6.496,64.963 -19.489,90.582c-12.993,25.619 -31.567,45.383 -55.722,59.29c-24.155,13.908 -52.885,20.862 -86.19,20.862Z" style="fill-rule:nonzero;"/><path d="M5124.18,3995.54l-0,-384.289l85.641,0l112.542,233.318l111.993,-233.318l85.641,0l0,384.289l-62.035,-0l0,-300.843l-136.148,273.394l-136.697,-275.041l0,302.49l-60.937,-0Z" style="fill-rule:nonzero;"/></g><g><path d="M993.087,4822.42l-80.657,-97.46c-43.689,23.525 -90.739,42.289 -141.149,56.292c-50.411,14.003 -103.062,21.004 -157.953,21.004c-86.258,0 -166.635,-15.403 -241.131,-46.209c-74.495,-30.807 -139.749,-73.936 -195.76,-129.387c-56.012,-55.452 -99.421,-119.865 -130.227,-193.241c-30.807,-73.375 -46.21,-152.631 -46.21,-237.769c0,-85.138 15.403,-164.394 46.21,-237.77c30.806,-73.375 74.215,-137.788 130.227,-193.24c56.011,-55.451 121.265,-98.58 195.76,-129.387c74.496,-30.806 154.873,-46.209 241.131,-46.209c85.137,-0 164.674,15.403 238.609,46.209c73.936,30.807 138.909,73.936 194.921,129.387c56.012,55.452 99.701,119.865 131.067,193.24c31.367,73.376 47.05,152.632 47.05,237.77c-0,86.258 -16.804,167.475 -50.411,243.651c-33.607,76.176 -79.536,141.709 -137.788,196.601l120.985,147.87l-164.674,38.648Zm-379.759,-183.158c34.727,0 68.054,-3.921 99.98,-11.762c31.927,-7.842 61.893,-19.604 89.899,-35.287l-151.231,-183.159l166.354,-40.328l109.223,132.748c36.968,-39.209 65.814,-85.138 86.538,-137.789c20.724,-52.651 31.087,-108.663 31.087,-168.035c-0,-63.853 -11.203,-122.666 -33.607,-176.437c-22.405,-53.771 -53.212,-100.541 -92.42,-140.309c-39.208,-39.768 -84.857,-70.855 -136.948,-93.259c-52.091,-22.405 -108.383,-33.607 -168.875,-33.607c-61.613,-0 -118.745,11.202 -171.396,33.607c-52.651,22.404 -98.581,53.491 -137.789,93.259c-39.208,39.768 -69.734,86.538 -91.579,140.309c-21.844,53.771 -32.767,112.584 -32.767,176.437c0,62.733 10.923,121.265 32.767,175.597c21.845,54.331 52.371,101.381 91.579,141.149c39.208,39.768 85.138,70.855 137.789,93.259c52.651,22.405 109.783,33.607 171.396,33.607Z" style="fill-rule:nonzero;"/><path d="M1199.77,4783.78l485.621,-1176.24l208.363,-0l480.58,1176.24l-191.56,0l-136.108,-344.471l-525.949,-0l-137.789,344.471l-183.158,0Zm378.078,-490.662l411.686,0l-205.003,-517.547l-206.683,517.547Z" style="fill-rule:nonzero;"/><rect x="2444.91" y="3607.53" width="176.437" height="1176.25" style="fill-rule:nonzero;"/></g><g><path d="M2822.52,4411.25l108.357,-273.827l35.989,0l106.792,273.827l-32.468,-0l-32.468,-86.06l-122.048,-0l-32.468,86.06l-31.686,-0Zm73.542,-109.922l103.663,-0l-52.027,-136.522l-51.636,136.522Z" style="fill-rule:nonzero;"/><path d="M3129.59,4411.25l-0,-273.827l30.121,0l-0,247.226l154.516,0l0,26.601l-184.637,-0Z" style="fill-rule:nonzero;"/><path d="M3480.87,4415.55c-19.559,-0 -37.684,-3.651 -54.374,-10.953c-16.69,-7.302 -31.36,-17.408 -44.008,-30.317c-12.648,-12.909 -22.493,-27.904 -29.534,-44.986c-7.041,-17.081 -10.562,-35.401 -10.562,-54.961c0,-19.559 3.521,-37.879 10.562,-54.96c7.041,-17.082 16.886,-32.077 29.534,-44.986c12.648,-12.909 27.318,-23.015 44.008,-30.317c16.69,-7.302 34.815,-10.953 54.374,-10.953c20.863,0 40.618,3.782 59.264,11.345c18.646,7.562 34.489,18.776 47.528,33.641l-20.341,20.341c-10.171,-12.257 -22.949,-21.645 -38.336,-28.165c-15.386,-6.519 -31.425,-9.779 -48.115,-9.779c-15.386,-0 -29.599,2.934 -42.639,8.802c-13.039,5.867 -24.448,13.952 -34.228,24.253c-9.779,10.301 -17.407,22.362 -22.884,36.184c-5.476,13.822 -8.215,28.686 -8.215,44.594c0,15.908 2.739,30.773 8.215,44.595c5.477,13.822 13.105,25.883 22.884,36.184c9.78,10.301 21.189,18.386 34.228,24.253c13.04,5.868 27.253,8.802 42.639,8.802c18.255,0 34.62,-4.042 49.093,-12.127c14.474,-8.084 26.209,-19.233 35.206,-33.445c8.998,-14.213 14.279,-30.187 15.843,-47.92l-92.318,-0l-0,-26.6l122.83,-0l0,12.126c0,19.038 -3.259,36.706 -9.779,53.005c-6.52,16.299 -15.713,30.643 -27.578,43.03c-11.866,12.387 -25.753,22.037 -41.661,28.947c-15.908,6.911 -33.12,10.367 -51.636,10.367Z" style="fill-rule:nonzero;"/><path d="M3809.08,4415.55c-19.038,-0 -36.771,-3.586 -53.201,-10.758c-16.43,-7.171 -30.838,-17.212 -43.225,-30.121c-12.388,-12.909 -22.102,-27.904 -29.143,-44.985c-7.042,-17.082 -10.562,-35.533 -10.562,-55.353c-0,-19.819 3.52,-38.27 10.562,-55.352c7.041,-17.081 16.755,-32.076 29.143,-44.985c12.387,-12.909 26.795,-22.95 43.225,-30.121c16.43,-7.172 34.163,-10.758 53.201,-10.758c19.037,0 36.771,3.586 53.2,10.758c16.43,7.171 30.838,17.212 43.226,30.121c12.387,12.909 22.101,27.904 29.143,44.985c7.041,17.082 10.561,35.533 10.561,55.352c0,19.82 -3.52,38.271 -10.561,55.353c-7.042,17.081 -16.756,32.076 -29.143,44.985c-12.388,12.909 -26.796,22.95 -43.226,30.121c-16.429,7.172 -34.163,10.758 -53.2,10.758Zm-0,-27.383c14.864,0 28.686,-2.869 41.465,-8.606c12.778,-5.737 23.992,-13.822 33.641,-24.253c9.649,-10.432 17.147,-22.558 22.493,-36.38c5.346,-13.822 8.019,-28.687 8.019,-44.595c0,-16.168 -2.673,-31.098 -8.019,-44.79c-5.346,-13.691 -12.844,-25.752 -22.493,-36.184c-9.649,-10.431 -20.863,-18.516 -33.641,-24.253c-12.779,-5.737 -26.601,-8.606 -41.465,-8.606c-14.865,-0 -28.687,2.869 -41.466,8.606c-12.778,5.737 -23.992,13.822 -33.641,24.253c-9.649,10.432 -17.147,22.493 -22.493,36.184c-5.346,13.692 -8.019,28.491 -8.019,44.399c-0,16.169 2.673,31.164 8.019,44.986c5.346,13.822 12.844,25.948 22.493,36.38c9.649,10.431 20.863,18.516 33.641,24.253c12.779,5.737 26.601,8.606 41.466,8.606Z" style="fill-rule:nonzero;"/><path d="M4016.01,4411.25l0,-273.827l112.269,0c17.473,0 32.729,3.325 45.768,9.975c13.039,6.65 23.21,15.843 30.512,27.579c7.302,11.735 10.953,25.557 10.953,41.465c0,18.255 -5.085,33.837 -15.256,46.746c-10.171,12.909 -24.123,21.971 -41.856,27.187l58.286,120.875l-33.251,-0l-55.547,-116.963l-81.757,-0l0,116.963l-30.121,-0Zm30.121,-141.999l79.801,0c17.994,0 32.403,-4.759 43.225,-14.278c10.823,-9.519 16.234,-22.232 16.234,-38.14c0,-16.169 -5.411,-29.013 -16.234,-38.531c-10.822,-9.519 -25.231,-14.278 -43.225,-14.278l-79.801,-0l0,105.227Z" style="fill-rule:nonzero;"/><rect x="4298.05" y="4137.42" width="30.121" height="273.826" style="fill-rule:nonzero;"/><path d="M4485.82,4411.25l-0,-247.226l-94.666,-0l0,-26.601l219.453,0l-0,26.601l-94.666,-0l-0,247.226l-30.121,-0Z" style="fill-rule:nonzero;"/><path d="M4677.49,4411.25l0,-273.827l30.121,0l0,122.44l157.255,-0l-0,-122.44l30.121,0l-0,273.827l-30.121,-0l-0,-124.396l-157.255,0l0,124.396l-30.121,-0Z" style="fill-rule:nonzero;"/><path d="M4970.1,4411.25l-0,-273.827l41.856,0l91.536,194.808l91.536,-194.808l41.857,0l-0,273.827l-28.557,-0l0,-238.229l-104.836,218.67l-105.227,-219.453l-0,239.012l-28.165,-0Z" style="fill-rule:nonzero;"/><path d="M5408.61,4415.55c-21.385,-0 -41.204,-3.847 -59.459,-11.54c-18.256,-7.693 -35.859,-19.364 -52.81,-35.011l18.386,-21.906c16.429,15.387 31.881,26.34 46.355,32.859c14.473,6.52 30.577,9.78 48.31,9.78c14.083,-0 26.666,-2.413 37.749,-7.237c11.084,-4.825 19.755,-11.41 26.014,-19.755c6.259,-8.345 9.388,-17.864 9.388,-28.556c0,-13.822 -4.564,-24.318 -13.691,-31.49c-9.128,-7.172 -24.905,-12.713 -47.333,-16.625l-44.203,-7.433c-25.036,-4.433 -43.356,-12.061 -54.961,-22.884c-11.605,-10.822 -17.408,-25.361 -17.408,-43.616c0,-15.387 3.977,-29.013 11.931,-40.879c7.954,-11.865 18.972,-21.189 33.055,-27.969c14.082,-6.78 30.382,-10.171 48.897,-10.171c20.342,0 39.249,2.804 56.722,8.411c17.472,5.607 34.684,14.408 51.635,26.404l-15.647,23.471c-14.082,-10.692 -28.947,-18.842 -44.594,-24.449c-15.648,-5.607 -31.556,-8.41 -47.724,-8.41c-12.779,0 -24.058,2.217 -33.838,6.65c-9.779,4.433 -17.472,10.432 -23.079,17.994c-5.607,7.563 -8.411,16.169 -8.411,25.818c0,11.997 4.043,21.385 12.127,28.165c8.084,6.781 21.254,11.605 39.509,14.474l43.813,7.432c29.208,5.216 50.397,13.627 63.566,25.232c13.17,11.605 19.755,27.708 19.755,48.31c-0,15.908 -4.499,30.121 -13.496,42.639c-8.997,12.518 -21.319,22.363 -36.966,29.534c-15.648,7.172 -33.511,10.758 -53.592,10.758Z" style="fill-rule:nonzero;"/></g><g><path d="M2822.52,4411.25l108.357,-273.827l35.989,0l106.792,273.827l-32.468,-0l-32.468,-86.06l-122.048,-0l-32.468,86.06l-31.686,-0Zm73.542,-109.922l103.663,-0l-52.027,-136.522l-51.636,136.522Z" style="fill-rule:nonzero;"/><path d="M3129.59,4411.25l-0,-273.827l30.121,0l-0,247.226l154.516,0l0,26.601l-184.637,-0Z" style="fill-rule:nonzero;"/><path d="M3480.87,4415.55c-19.559,-0 -37.684,-3.651 -54.374,-10.953c-16.69,-7.302 -31.36,-17.408 -44.008,-30.317c-12.648,-12.909 -22.493,-27.904 -29.534,-44.986c-7.041,-17.081 -10.562,-35.401 -10.562,-54.961c0,-19.559 3.521,-37.879 10.562,-54.96c7.041,-17.082 16.886,-32.077 29.534,-44.986c12.648,-12.909 27.318,-23.015 44.008,-30.317c16.69,-7.302 34.815,-10.953 54.374,-10.953c20.863,0 40.618,3.782 59.264,11.345c18.646,7.562 34.489,18.776 47.528,33.641l-20.341,20.341c-10.171,-12.257 -22.949,-21.645 -38.336,-28.165c-15.386,-6.519 -31.425,-9.779 -48.115,-9.779c-15.386,-0 -29.599,2.934 -42.639,8.802c-13.039,5.867 -24.448,13.952 -34.228,24.253c-9.779,10.301 -17.407,22.362 -22.884,36.184c-5.476,13.822 -8.215,28.686 -8.215,44.594c0,15.908 2.739,30.773 8.215,44.595c5.477,13.822 13.105,25.883 22.884,36.184c9.78,10.301 21.189,18.386 34.228,24.253c13.04,5.868 27.253,8.802 42.639,8.802c18.255,0 34.62,-4.042 49.093,-12.127c14.474,-8.084 26.209,-19.233 35.206,-33.445c8.998,-14.213 14.279,-30.187 15.843,-47.92l-92.318,-0l-0,-26.6l122.83,-0l0,12.126c0,19.038 -3.259,36.706 -9.779,53.005c-6.52,16.299 -15.713,30.643 -27.578,43.03c-11.866,12.387 -25.753,22.037 -41.661,28.947c-15.908,6.911 -33.12,10.367 -51.636,10.367Z" style="fill-rule:nonzero;"/><path d="M3809.08,4415.55c-19.038,-0 -36.771,-3.586 -53.201,-10.758c-16.43,-7.171 -30.838,-17.212 -43.225,-30.121c-12.388,-12.909 -22.102,-27.904 -29.143,-44.985c-7.042,-17.082 -10.562,-35.533 -10.562,-55.353c-0,-19.819 3.52,-38.27 10.562,-55.352c7.041,-17.081 16.755,-32.076 29.143,-44.985c12.387,-12.909 26.795,-22.95 43.225,-30.121c16.43,-7.172 34.163,-10.758 53.201,-10.758c19.037,0 36.771,3.586 53.2,10.758c16.43,7.171 30.838,17.212 43.226,30.121c12.387,12.909 22.101,27.904 29.143,44.985c7.041,17.082 10.561,35.533 10.561,55.352c0,19.82 -3.52,38.271 -10.561,55.353c-7.042,17.081 -16.756,32.076 -29.143,44.985c-12.388,12.909 -26.796,22.95 -43.226,30.121c-16.429,7.172 -34.163,10.758 -53.2,10.758Zm-0,-27.383c14.864,0 28.686,-2.869 41.465,-8.606c12.778,-5.737 23.992,-13.822 33.641,-24.253c9.649,-10.432 17.147,-22.558 22.493,-36.38c5.346,-13.822 8.019,-28.687 8.019,-44.595c0,-16.168 -2.673,-31.098 -8.019,-44.79c-5.346,-13.691 -12.844,-25.752 -22.493,-36.184c-9.649,-10.431 -20.863,-18.516 -33.641,-24.253c-12.779,-5.737 -26.601,-8.606 -41.465,-8.606c-14.865,-0 -28.687,2.869 -41.466,8.606c-12.778,5.737 -23.992,13.822 -33.641,24.253c-9.649,10.432 -17.147,22.493 -22.493,36.184c-5.346,13.692 -8.019,28.491 -8.019,44.399c-0,16.169 2.673,31.164 8.019,44.986c5.346,13.822 12.844,25.948 22.493,36.38c9.649,10.431 20.863,18.516 33.641,24.253c12.779,5.737 26.601,8.606 41.466,8.606Z" style="fill-rule:nonzero;"/><path d="M4016.01,4411.25l0,-273.827l112.269,0c17.473,0 32.729,3.325 45.768,9.975c13.039,6.65 23.21,15.843 30.512,27.579c7.302,11.735 10.953,25.557 10.953,41.465c0,18.255 -5.085,33.837 -15.256,46.746c-10.171,12.909 -24.123,21.971 -41.856,27.187l58.286,120.875l-33.251,-0l-55.547,-116.963l-81.757,-0l0,116.963l-30.121,-0Zm30.121,-141.999l79.801,0c17.994,0 32.403,-4.759 43.225,-14.278c10.823,-9.519 16.234,-22.232 16.234,-38.14c0,-16.169 -5.411,-29.013 -16.234,-38.531c-10.822,-9.519 -25.231,-14.278 -43.225,-14.278l-79.801,-0l0,105.227Z" style="fill-rule:nonzero;"/><rect x="4298.05" y="4137.42" width="30.121" height="273.826" style="fill-rule:nonzero;"/><path d="M4485.82,4411.25l-0,-247.226l-94.666,-0l0,-26.601l219.453,0l-0,26.601l-94.666,-0l-0,247.226l-30.121,-0Z" style="fill-rule:nonzero;"/><path d="M4677.49,4411.25l0,-273.827l30.121,0l0,122.44l157.255,-0l-0,-122.44l30.121,0l-0,273.827l-30.121,-0l-0,-124.396l-157.255,0l0,124.396l-30.121,-0Z" style="fill-rule:nonzero;"/><path d="M4970.1,4411.25l-0,-273.827l41.856,0l91.536,194.808l91.536,-194.808l41.857,0l-0,273.827l-28.557,-0l0,-238.229l-104.836,218.67l-105.227,-219.453l-0,239.012l-28.165,-0Z" style="fill-rule:nonzero;"/><path d="M5408.61,4415.55c-21.385,-0 -41.204,-3.847 -59.459,-11.54c-18.256,-7.693 -35.859,-19.364 -52.81,-35.011l18.386,-21.906c16.429,15.387 31.881,26.34 46.355,32.859c14.473,6.52 30.577,9.78 48.31,9.78c14.083,-0 26.666,-2.413 37.749,-7.237c11.084,-4.825 19.755,-11.41 26.014,-19.755c6.259,-8.345 9.388,-17.864 9.388,-28.556c0,-13.822 -4.564,-24.318 -13.691,-31.49c-9.128,-7.172 -24.905,-12.713 -47.333,-16.625l-44.203,-7.433c-25.036,-4.433 -43.356,-12.061 -54.961,-22.884c-11.605,-10.822 -17.408,-25.361 -17.408,-43.616c0,-15.387 3.977,-29.013 11.931,-40.879c7.954,-11.865 18.972,-21.189 33.055,-27.969c14.082,-6.78 30.382,-10.171 48.897,-10.171c20.342,0 39.249,2.804 56.722,8.411c17.472,5.607 34.684,14.408 51.635,26.404l-15.647,23.471c-14.082,-10.692 -28.947,-18.842 -44.594,-24.449c-15.648,-5.607 -31.556,-8.41 -47.724,-8.41c-12.779,0 -24.058,2.217 -33.838,6.65c-9.779,4.433 -17.472,10.432 -23.079,17.994c-5.607,7.563 -8.411,16.169 -8.411,25.818c0,11.997 4.043,21.385 12.127,28.165c8.084,6.781 21.254,11.605 39.509,14.474l43.813,7.432c29.208,5.216 50.397,13.627 63.566,25.232c13.17,11.605 19.755,27.708 19.755,48.31c-0,15.908 -4.499,30.121 -13.496,42.639c-8.997,12.518 -21.319,22.363 -36.966,29.534c-15.648,7.172 -33.511,10.758 -53.592,10.758Z" style="fill-rule:nonzero;"/></g><g><rect x="2885.49" y="4555.69" width="16.959" height="228.299" style="fill-rule:nonzero;"/><path d="M3086.72,4783.99l-0,-228.299l18.916,0l141.872,201.23l-0,-201.23l15.981,0l-0,228.299l-15.655,0l-145.133,-205.795l-0,205.795l-15.981,0Z" style="fill-rule:nonzero;"/><path d="M3525.38,4787.58c-18.264,-0 -34.952,-3.479 -50.063,-10.437c-15.111,-6.957 -28.864,-17.068 -41.257,-30.331l11.415,-11.741c13.48,13.481 26.254,22.993 38.321,28.537c12.068,5.545 26.037,8.317 41.91,8.317c12.828,0 24.297,-2.283 34.408,-6.849c10.11,-4.566 18.101,-10.763 23.971,-18.59c5.871,-7.827 8.806,-16.633 8.806,-26.417c-0,-12.394 -4.186,-21.961 -12.557,-28.701c-8.371,-6.74 -22.884,-11.85 -43.539,-15.329l-33.919,-5.87c-21.091,-3.696 -36.637,-9.948 -46.639,-18.753c-10.001,-8.806 -15.002,-20.71 -15.002,-35.713c-0,-12.611 3.207,-23.645 9.621,-33.103c6.414,-9.458 15.383,-16.905 26.907,-22.341c11.524,-5.436 24.678,-8.154 39.463,-8.154c15.437,0 30.331,2.283 44.681,6.849c14.351,4.566 29.136,12.068 44.356,22.504l-9.458,14.35c-11.524,-8.914 -24.189,-15.817 -37.996,-20.71c-13.807,-4.892 -27.559,-7.338 -41.257,-7.338c-11.306,0 -21.471,2.011 -30.494,6.034c-9.023,4.022 -16.09,9.512 -21.199,16.47c-5.11,6.958 -7.665,15.003 -7.665,24.135c0,11.088 3.642,19.677 10.926,25.765c7.284,6.088 19.514,10.654 36.691,13.698l33.919,5.87c24.569,4.131 42.398,11.035 53.487,20.71c11.089,9.676 16.633,22.993 16.633,39.953c0,12.828 -3.642,24.352 -10.925,34.571c-7.284,10.219 -17.286,18.209 -30.006,23.971c-12.719,5.762 -27.232,8.643 -43.539,8.643Z" style="fill-rule:nonzero;"/><path d="M3840.43,4783.99l-0,-212.97l-80.231,-0l-0,-15.329l177.421,0l-0,15.329l-80.231,-0l-0,212.97l-16.959,0Z" style="fill-rule:nonzero;"/><rect x="4108.19" y="4555.69" width="16.959" height="228.299" style="fill-rule:nonzero;"/><path d="M4375.95,4783.99l-0,-212.97l-80.231,-0l-0,-15.329l177.421,0l-0,15.329l-80.231,-0l-0,212.97l-16.959,0Z" style="fill-rule:nonzero;"/><path d="M4728.19,4787.58c-17.612,-0 -33.104,-3.859 -46.475,-11.578c-13.372,-7.719 -23.809,-19.025 -31.31,-33.919c-7.501,-14.894 -11.252,-32.886 -11.252,-53.976l0,-132.414l16.959,0l0,132.414c0,17.829 3.099,32.994 9.295,45.496c6.197,12.503 14.731,22.015 25.603,28.538c10.871,6.523 23.264,9.784 37.18,9.784c14.133,0 26.58,-3.261 37.343,-9.784c10.763,-6.523 19.242,-16.035 25.439,-28.538c6.197,-12.502 9.295,-27.667 9.295,-45.496l0,-132.414l16.959,0l0,132.414c0,21.09 -3.75,39.082 -11.251,53.976c-7.502,14.894 -17.938,26.2 -31.31,33.919c-13.372,7.719 -28.864,11.578 -46.475,11.578Z" style="fill-rule:nonzero;"/><path d="M5063.46,4783.99l-0,-212.97l-80.231,-0l-0,-15.329l177.421,0l-0,15.329l-80.231,-0l-0,212.97l-16.959,0Z" style="fill-rule:nonzero;"/><path d="M5331.22,4783.99l0,-228.299l151.33,0l-0,15.329l-134.371,-0l0,90.015l92.951,-0l-0,15.329l-92.951,-0l0,92.298l135.675,-0l0,15.328l-152.634,0Z" style="fill-rule:nonzero;"/></g></g><g id="Icon"><path d="M929.584,1685.26c0,-930.121 755.141,-1685.26 1685.26,-1685.26l-0,561.754c-620.081,-0 -1123.51,503.427 -1123.51,1123.51l-561.754,0Z" style="fill:#ef8f31;"/><path d="M2614.85,3370.52c-930.121,-0 -1685.26,-755.141 -1685.26,-1685.26l561.754,0c0,620.081 503.427,1123.51 1123.51,1123.51l-0,561.754Z" style="fill:#005a9d;"/><clipPath id="_clip1"><path d="M2614.85,3370.52c-930.121,-0 -1685.26,-755.141 -1685.26,-1685.26l561.754,0c0,620.081 503.427,1123.51 1123.51,1123.51l-0,561.754Z"/></clipPath><g clip-path="url(#_clip1)"><path d="M929.584,3370.52c0,-930.121 755.141,-1685.26 1685.26,-1685.26l-0,561.754c-620.081,0 -1123.51,503.427 -1123.51,1123.51l-561.754,-0Z" style="fill-opacity:0.31;"/></g><path d="M3738.35,1685.26c0,-620.08 -503.427,-1123.51 -1123.51,-1123.51l-0,-561.754c930.121,0 1685.26,755.14 1685.26,1685.26c0,306.869 -82.196,594.69 -225.754,842.631c-103.889,-179.426 -239.912,-337.967 -400.174,-467.727c41.555,-117.271 64.174,-243.467 64.174,-374.904Z" style="fill:#00aeef;"/><path d="M3176.6,1685.26c0,-310.04 -251.713,-561.753 -561.753,-561.753l-0,-561.754c620.08,-0 1123.51,503.427 1123.51,1123.51c0,620.081 -503.427,1123.51 -1123.51,1123.51l-0,-561.754c310.04,0 561.753,-251.713 561.753,-561.754Z" style="fill:#005a9d;"/><path d="M2614.85,1685.26c930.121,0 1685.26,755.141 1685.26,1685.26l-561.754,-0c0,-620.081 -503.427,-1123.51 -1123.51,-1123.51l-0,-561.754Z" style="fill:#ef8f31;"/><path d="M2614.85,2808.77c-620.081,-0 -1123.51,-503.427 -1123.51,-1123.51l561.754,0c-0,310.041 251.713,561.754 561.754,561.754c620.08,0 1123.51,503.427 1123.51,1123.51l-561.754,-0c0,-310.041 -251.713,-561.754 -561.753,-561.754Z" style="fill:#00aeef;"/><clipPath id="_clip2"><path d="M2614.85,2808.77c-620.081,-0 -1123.51,-503.427 -1123.51,-1123.51l561.754,0c-0,310.041 251.713,561.754 561.754,561.754c620.08,0 1123.51,503.427 1123.51,1123.51l-561.754,-0c0,-310.041 -251.713,-561.754 -561.753,-561.754Z"/></clipPath><g clip-path="url(#_clip2)"><path d="M929.584,3370.52c0,-930.121 755.141,-1685.26 1685.26,-1685.26l-0,561.754c-620.081,0 -1123.51,503.427 -1123.51,1123.51l-561.754,-0Z" style="fill:#000012;fill-opacity:0.07;"/></g></g></g></svg>